<svg id="SvgjsSvg1001" width="288" height="288" xmlns="http://www.w3.org/2000/svg" version="1.1" xmlns:xlink="http://www.w3.org/1999/xlink" xmlns:svgjs="http://svgjs.com/svgjs"><defs id="SvgjsDefs1002"></defs><g id="SvgjsG1008"><svg xmlns="http://www.w3.org/2000/svg" enable-background="new 0 0 24 24" viewBox="0 0 24 24" width="288" height="288"><path d="M5 7h14c.6 0 1-.4 1-1s-.4-1-1-1H5C4.4 5 4 5.4 4 6S4.4 7 5 7zM5 13h14c.6 0 1-.4 1-1s-.4-1-1-1H5c-.6 0-1 .4-1 1S4.4 13 5 13zM5 19h14c.6 0 1-.4 1-1s-.4-1-1-1H5c-.6 0-1 .4-1 1S4.4 19 5 19z" fill="#999999" class="color000 svgShape"></path></svg></g></svg>